<svg width="60" height="80" viewBox="0 0 387 450" fill="none" xmlns="http://www.w3.org/2000/svg">
<path d="M58.7928 200.841L55.3917 215.179C37.0009 242.139 0.974907 297.308 3.99806 302.308C17.6023 283.314 46.9269 246.796 55.3917 252.678C47.33 260.766 31.5088 282.015 32.7181 302.308C32.97 298.019 35.6657 287.529 44.4328 279.883C40.5279 286.5 34.2296 303.264 40.276 317.381C41.2837 306.107 46.3978 282.824 58.7928 279.883C55.1398 285.029 47.6827 301.499 47.0781 326.204C44.5588 333.067 42.1654 354.218 52.7465 383.923V373.629C55.3918 383.31 64.3856 404.657 79.1991 412.598L76.5539 383.923C78.1914 395.687 87.9663 421.274 113.965 429.509L93.1812 400.099C124.546 434.901 211.765 483.625 309.715 400.099C308.455 404.755 303.744 416.054 294.977 423.995C306.188 419.951 329.29 406.275 332.011 383.923L327.476 409.657C340.198 398.628 363.754 369.144 356.196 339.439L366.777 344.218C362.116 339.194 353.475 323.557 356.196 301.205C356.826 297.652 355.818 288.338 346.749 279.515C354.181 286.377 367.76 303.338 362.62 316.278C366.651 309.661 371.538 293.044 358.841 279.515C364.006 285.029 374.41 297.529 374.713 303.411C375.721 293.117 371.538 268.633 346.749 253.045C356.448 257.212 377.434 269.956 383.782 287.603C384.412 272.652 377.207 234.002 343.348 199.003L369.422 215.547C361.99 207.459 345.539 186.945 339.191 169.593C291.016 161.205 167.491 149.462 58.7928 169.593V176.316" stroke="black" stroke-width="6"/>
<path d="M60.3804 174.544C54.2279 186.309 41.2866 210.58 38.7408 213.552C36.1949 216.524 52.1064 205.297 60.3804 199.311" stroke="black" stroke-width="6"/>
<path d="M59.6056 169.386C57.7358 166.039 55.1181 158.254 59.6056 153.888C64.0931 149.522 62.8216 145.957 61.625 144.72C58.035 142.028 52.2013 135.247 57.5862 129.659C62.9712 124.071 64.6166 118.308 64.7662 116.125C57.5862 114.452 49.5088 107.918 74.6386 95.1706C106.051 79.2361 270.195 58.5989 343.885 106.243C346.086 107.944 347.965 111.96 337.866 114.416C341.631 117.971 347.433 125.727 340.523 128.312C333.614 130.897 338.309 138.977 341.52 142.693C347.278 145.44 355.14 154.553 340.523 169.031" stroke="black" stroke-width="6"/>
<path d="M80.1451 93.0562C78.6454 86.9868 77.6256 72.327 85.544 62.2425L76.7257 45.0849L99.0413 55.5896C104.74 43.8594 126.108 19.1735 165.988 14.2713L132.695 39.1323C139.533 34.8721 156.522 26.5267 169.767 27.227C172.887 23.0252 183.841 12.9407 202.701 6.21771L187.044 27.227C207.92 20.1072 258.922 10.8048 295.922 30.5535C285.17 29.2507 259.845 27.4268 244.567 30.5535C271.26 32.5083 324.713 48.2828 324.981 95.743" stroke="black" stroke-width="6"/>
<path d="M308.563 54.9976C313.143 53.0419 322.301 47.3701 322.301 40.3293C322.636 49.6736 322.234 68.4273 317.945 68.6881" stroke="black" stroke-width="6"/>
<path d="M159.231 272.468C135.389 267.231 146.413 249.087 154.905 240.669C80.7458 257.832 76.9886 219.668 84.3799 198.44C82.5275 198.62 78.0698 202.351 76.0724 204.194C79.4373 175.2 110.201 160.236 162.596 168.186C204.512 174.546 239.346 170.836 251.523 168.186C318.435 152.847 334.522 189.541 334.202 209.805L327.953 204.194C338.336 255.446 281.326 247.995 251.523 237.863C270.366 259.562 259.375 269.974 251.523 272.468C262.291 275.835 267.546 273.871 268.828 272.468C286.518 290.051 287.735 314.088 286.133 323.908C290.459 344.484 280.365 386.478 205.377 389.845C130.39 393.212 121.257 351.654 126.064 330.455C117.988 300.901 132.954 279.483 141.446 272.468C150.291 275.087 156.988 273.559 159.231 272.468Z" stroke="black" stroke-width="6"/>
<path d="M125.883 330.845C152.623 315.803 223.749 294.608 285.969 324.738" stroke="black" stroke-width="6"/>
<path d="M171.976 216.892C164.026 222.75 142.59 230.953 120.45 216.892C122.62 219.48 129.273 225.416 138.52 228.457C125.985 227.77 100.165 221.741 97.1695 203.116C96.7354 197.415 101.467 184.618 123.868 179.043C120.233 180.627 112.766 184.713 111.984 188.387C111.203 192.062 111.659 190.446 111.984 189.179C118.605 186.434 134.711 182.432 146.172 188.387C160.498 195.831 180.359 203.116 181.336 203.116C182.313 203.116 190.696 203.116 181.336 194.405C171.976 185.695 163.428 185.853 160.986 184.428C165.816 184.85 177.038 186.392 183.29 189.179C183.506 188.479 183.779 187.3 183.71 186.549C183.232 186.04 183.056 185.815 183.29 185.853C183.553 185.896 183.676 186.167 183.71 186.549C185.233 188.168 189.822 192.666 194.034 200.741C199.569 211.352 211.616 207.076 212.756 200.741C213.668 195.673 215.741 190.921 216.663 189.179C216.663 190.921 216.858 194.405 217.64 194.405C218.617 194.405 217.99 188.739 250.668 182.223C243.902 184.724 228.788 191.583 222.455 199.007C214.539 208.288 246 197.702 245.797 194.405C256.825 187.49 282.372 176.604 296.336 188.387C294.848 185.989 289.922 180.764 282.128 179.043C290.382 179.078 307.865 182.922 311.762 198.02C316.633 216.892 285.985 228.823 270.356 229.218C274.957 227.912 285.092 223.617 288.826 216.892C281.181 222.58 260.207 230.759 237.475 217.963C239.548 221.833 246.795 229.502 259.193 229.218C256.013 230.469 247.217 231.825 237.475 227.244C237.813 229.416 239.383 234.392 242.955 236.919C240.316 236.129 233.781 233.089 228.747 227.244C227.123 230.864 221.968 238.815 214.336 241.658C216.636 238.894 221.156 231.825 220.831 225.664C220.425 217.963 189.574 214.409 187.95 225.664C188.288 228.165 190.304 234.866 195.663 241.658C192.539 241.132 185.3 237.512 181.336 227.244C178.98 229.588 172.365 234.804 164.754 236.919C166.974 234.98 171.767 230.148 173.181 226.34C171.237 227.168 163.812 228.507 149.662 227.244C155.114 227.006 167.209 224.602 171.976 216.892Z" fill="black"/>
<path d="M171.976 216.892C164.026 222.75 142.59 230.953 120.45 216.892C122.62 219.48 129.273 225.416 138.52 228.457C125.985 227.77 100.165 221.741 97.1695 203.116C96.7354 197.415 101.467 184.618 123.868 179.043C120.233 180.627 112.766 184.713 111.984 188.387C111.203 192.062 111.659 190.446 111.984 189.179C118.605 186.434 134.711 182.432 146.172 188.387C160.498 195.831 180.359 203.116 181.336 203.116C182.313 203.116 190.696 203.116 181.336 194.405C171.976 185.695 163.428 185.853 160.986 184.428C165.816 184.85 177.038 186.392 183.29 189.179C183.615 188.123 184.071 185.98 183.29 185.853C182.313 185.695 188.499 190.129 194.034 200.741C199.569 211.352 211.616 207.076 212.756 200.741C213.668 195.673 215.741 190.921 216.663 189.179C216.663 190.921 216.858 194.405 217.64 194.405C218.617 194.405 217.99 188.739 250.668 182.223C243.902 184.724 228.788 191.583 222.455 199.007C214.539 208.288 246 197.702 245.797 194.405C256.825 187.49 282.372 176.604 296.336 188.387C294.848 185.989 289.922 180.764 282.128 179.043C290.382 179.078 307.865 182.922 311.762 198.02C316.633 216.892 285.985 228.823 270.356 229.218C274.957 227.912 285.092 223.617 288.826 216.892C281.181 222.58 260.207 230.759 237.475 217.963C239.548 221.833 246.795 229.502 259.193 229.218C256.013 230.469 247.217 231.825 237.475 227.244C237.813 229.416 239.383 234.392 242.955 236.919C240.316 236.129 233.781 233.089 228.747 227.244C227.123 230.864 221.968 238.815 214.336 241.658C216.636 238.894 221.156 231.825 220.831 225.664C220.425 217.963 189.574 214.409 187.95 225.664C188.288 228.165 190.304 234.866 195.663 241.658C192.539 241.132 185.3 237.512 181.336 227.244C178.98 229.588 172.365 234.804 164.754 236.919C166.974 234.98 171.767 230.148 173.181 226.34C171.237 227.168 163.812 228.507 149.662 227.244C155.114 227.006 167.209 224.602 171.976 216.892Z" stroke="black"/>
<path d="M142.497 209.121L133.604 202.444V210.625C133.604 214.688 139.533 218.023 142.497 219.183C144.14 219.59 148.915 220.161 154.869 219.183C160.824 218.205 163.794 214.7 164.535 213.07H154.096V214.669L150.906 214.011L150.326 216.456C144.759 216.004 142.787 214.638 142.497 214.011V209.121Z" fill="#D9D9D9" stroke="black"/>
<path d="M250.52 212.423H244.275V215.026C246.148 216.588 247.665 218.411 253.018 219.192C257.3 219.817 263.247 219.452 265.686 219.192C272.751 217.804 275.172 212.307 275.499 209.732V203.397C269.789 207.424 264.853 209.53 263.099 210.079V214.072H259.173V216.328H254.891C253.25 215.495 251.293 213.377 250.52 212.423Z" fill="#D9D9D9" stroke="black"/>
<path d="M172.914 245.784C181.889 255.243 206.75 268.485 234.392 245.784C243.517 249.204 257.413 258.619 240.002 268.922C241.872 267.03 245.387 262.461 244.489 259.317C237.758 265.575 221.02 274.684 207.916 261.064H200.512C196.025 266.594 182.472 274.335 164.164 261.064C164.796 263.253 167.452 268.041 173.139 270.637C173.517 270.8 173.891 270.956 174.26 271.105C173.874 270.958 173.5 270.802 173.139 270.637C162.035 265.846 147.917 254.903 172.914 245.784Z" fill="black"/>
<path d="M172.914 245.784C181.889 255.243 206.75 268.485 234.392 245.784C243.517 249.204 257.413 258.619 240.002 268.922C241.872 267.03 245.387 262.461 244.489 259.317C237.758 265.575 221.02 274.684 207.916 261.064H200.512C196.025 266.594 182.472 274.335 164.164 261.064C164.837 263.392 167.798 268.66 174.26 271.105C163.042 266.594 147.066 255.214 172.914 245.784Z" stroke="black"/>
<path d="M196.473 276.78L198.941 272.851V276.78H196.473Z" fill="black" stroke="black"/>
<path d="M204.102 276.78V272.414L206.475 276.78H204.102Z" fill="black" stroke="black"/>
<path d="M343.706 408.242C271.447 383.473 215.798 334.426 197.005 312.999L223.981 310.935C297.21 336.648 345.221 375.905 360.073 392.319C361.043 406.473 349.566 408.832 343.706 408.242Z" fill="black" stroke="black"/>
<path d="M282.177 341.307L261.566 331.281L271.871 338.529V341.307H282.177Z" fill="#D9D9D9"/>
<path d="M323.713 388.329L318.755 396.807H324.464L325.516 390.083L327.92 391.837V385.698L334.08 382.921V379.12L341.142 377.366L333.329 375.028L327.92 377.366V381.751H324.464L323.713 388.329Z" fill="#D9D9D9"/>
<path d="M290.085 349.932V345.339L307.993 355.95H294.155L296.271 353.099L290.085 349.932Z" fill="#D9D9D9"/>
<path d="M332.849 371.148L318.982 362.11L321.478 366.427L315.238 373.037L332.849 371.148Z" fill="#D9D9D9"/>
<path d="M354.364 394.176C345.469 398.854 345.85 403.726 347.152 405.577H342.494L339.339 401.192L346.251 395.784L342.494 396.953L346.251 390.814L353.613 387.891L350.007 394.176L354.364 390.814L357.82 393.299L358.571 396.953L354.364 399V394.176Z" fill="#D9D9D9"/>
<path d="M338.738 381.313L345.199 378.536L347.302 381.313H342.344L341.142 387.16L338.738 383.798L336.184 387.16H338.738L333.179 393.153L334.231 385.113L338.738 381.313Z" fill="#D9D9D9"/>
<path d="M101.658 82.8582C113.317 79.561 118.611 80.4981 119.8 81.3788C179.518 72.0651 245.941 75.8639 271.688 78.9275L263.133 75.6373C279.526 74.3987 288.93 77.3147 291.582 78.9275C278.054 67.3152 246.29 66.6055 232.099 67.7022C253.266 62.2831 274.075 63.6379 281.834 64.9927C258.757 48.2709 225.136 57.2511 211.21 63.8315C222.12 51.445 233.926 46.4065 238.465 45.4356C220.003 43.2603 203.511 55.2999 197.572 61.5916C202.181 53.9423 210.564 47.6337 214.179 45.4356C206.18 45.4356 197.516 52.9091 194.183 56.6459C190.794 47.9085 201.639 41.1493 201.639 40.1602C191.065 39.8964 184.241 50.2714 182.151 55.4919C179.576 47.8425 181.982 40.5449 183.507 37.8522C174.695 40.4899 174.187 50.7111 175.034 55.4919C168.256 47.7107 158.653 45.5455 154.699 45.4356C166.9 48.6009 173.339 58.1846 175.034 62.5808C159.986 47.5424 139.956 52.3582 131.822 56.6459C147.141 54.7995 156.281 57.4152 158.935 58.9539C120.57 57.6351 103.861 69.7246 100.303 75.9342C127.009 64.8558 153.23 67.4715 163.002 70.1642C130.195 68.4497 108.437 77.9125 101.658 82.8582Z" fill="black"/>
<path d="M93.3134 148.239C121.833 135.523 123.022 102.286 120.051 87.257C116.011 104.367 97.7696 112.112 89.1542 113.846C76.7757 118.374 54.5143 130.147 64.4963 141.014C74.4783 151.881 87.8668 150.359 93.3134 148.239Z" fill="black"/>
<path d="M104.571 115.912C110.751 113.138 114.474 106.856 115.563 104.062C115.081 115.279 111.083 138.991 98.9462 144.103C86.8096 149.216 78.0409 146.233 75.1736 144.103L77.9888 141.364C82.3679 142.46 88.3632 141.821 90.8134 141.364C93.1073 140.491 98.1196 137.412 99.8178 132.083C101.516 126.754 100.525 125.055 99.8178 124.872C82.2305 121.635 77.4376 132.771 77.2395 138.744H70.4066C66.6039 128.571 73.3774 122.945 77.2395 121.403C83.7754 120.729 98.3919 118.687 104.571 115.912Z" fill="#D9D9D9"/>
<path d="M146.275 99.6389C116.518 107.207 126.097 138.742 134.606 153.563C134.606 128.086 163.223 136.39 164.154 116.403C164.898 100.413 152.545 98.5646 146.275 99.6389Z" stroke="black" stroke-width="4"/>
<path d="M146.143 107.309C134.007 108.27 133.795 119.951 135.206 125.671C139.44 132.672 148.73 125.499 152.845 121.038C155.668 116.061 158.278 106.348 146.143 107.309Z" fill="black"/>
<ellipse cx="160.103" cy="93.3239" rx="4.08259" ry="3.86106" fill="black"/>
<ellipse cx="197.296" cy="106.88" rx="2.4695" ry="2.65984" fill="black"/>
<ellipse cx="166.251" cy="101.046" rx="1.76393" ry="1.80182" fill="black"/>
<ellipse cx="204.617" cy="82.8561" rx="2.38129" ry="1.80183" fill="black"/>
<ellipse cx="188.918" cy="117.091" rx="4.14522" ry="3.77525" fill="black"/>
<ellipse cx="188.741" cy="129.704" rx="4.32161" ry="3.86105" fill="black"/>
<ellipse cx="193.945" cy="140.6" rx="3.35145" ry="3.26044" fill="black"/>
<path d="M257.799 129.103C266.207 111.313 275.297 75.6317 244.393 75.2198C205.763 74.705 260.621 117.949 257.799 129.103Z" fill="black"/>
<path d="M252.331 80.7163C265.313 91.1497 260.445 99.3637 256.388 102.167C253.243 105.644 241.042 94.9593 238.396 89.2964C236.279 84.7661 241.512 81.0023 244.393 79.6867L252.331 80.7163Z" fill="#D9D9D9"/>
<path d="M226.93 154.672C211.584 141.115 188.9 112.492 220.933 106.451C260.974 98.9009 221.991 154.672 226.93 154.672Z" stroke="black" stroke-width="3"/>
<path d="M212.433 122.472C211.928 131.45 218.574 135.89 221.96 136.988C225.844 134.29 233.129 127.542 231.201 122.137C229.272 116.732 225.576 114.413 223.969 113.929C220.334 113.036 212.939 113.494 212.433 122.472Z" fill="black"/>
<path d="M325.285 109.284L336.776 112.078L344.088 123.765L336.776 132.149L341.738 144.979L335.209 149.806C328.106 153.261 321.455 153.024 319.018 152.474C310.966 150.272 295.384 142.87 297.473 130.879C299.562 118.887 311.836 113.349 317.712 112.078C313.116 106.794 303.523 102.763 299.301 101.408C309.329 102.932 320.802 107.293 325.285 109.284Z" fill="black"/>
<path d="M330.77 118.049L336.384 122.241C321.447 122.241 314.926 128.762 313.534 132.022C310.609 131.514 307.527 132.996 306.352 133.8V128.211C311.993 119.878 324.981 117.964 330.77 118.049Z" fill="#D9D9D9"/>
<path d="M308.572 137.611C310.661 139.093 317.817 142.591 329.725 144.725C322.674 146.292 308.572 147.062 308.572 137.611Z" fill="#D9D9D9"/>
<ellipse cx="281.24" cy="141.66" rx="2.47392" ry="2.20108" fill="black"/>
<ellipse cx="275.674" cy="131.365" rx="3.09237" ry="2.43566" fill="black"/>
<ellipse cx="109.458" cy="152.931" rx="3.55624" ry="1.74013" fill="black"/>
<ellipse cx="249.234" cy="89.0392" rx="3.247" ry="2.22798" fill="black"/>
<ellipse cx="284.032" cy="94.4447" rx="7.55006" ry="4.79945" fill="black"/>
<ellipse cx="278.941" cy="106.532" rx="4.77254" ry="3.00856" fill="black"/>
<ellipse cx="276.082" cy="116.598" rx="2.68417" ry="1.4477" fill="black"/>
<path d="M104.893 250.46C107.802 247.848 104.799 245.562 102.934 244.745C125.101 247.039 146.112 243.79 153.846 241.878C136.608 259.782 148.216 269.357 156.175 271.906C155.942 274.852 146.178 274.267 141.325 273.606C120.592 289.016 122.385 318.844 125.873 331.832C122.131 383.851 172.989 392.332 198.885 390.071C238.944 390.071 262.573 376.826 269.38 370.204L292.878 384.355C294.669 397.636 290.267 406.581 287.843 409.393C284.262 394.37 280.383 387.893 278.891 386.533C276.436 411.507 270.436 419.783 267.722 420.815C267.917 431.098 267.792 425.213 267.702 420.823C267.709 420.82 267.715 420.818 267.722 420.815C267.716 420.473 267.709 420.113 267.702 419.734C267.478 407.978 266.303 401.047 265.744 399.051C263.058 412.114 251.197 423.907 245.602 428.171C249.183 421.204 249.519 415.108 249.239 412.931C236.483 432.743 229.937 435.519 228.258 434.43C233.405 432.471 234.879 413.475 234.972 404.222C233.182 421.422 222.663 433.16 217.628 436.879C220.09 427.735 218.654 417.104 217.628 412.931C216.957 427.082 208.77 437.696 204.76 441.234C196.256 429.477 194.13 417.466 194.13 412.931C191.892 415.761 193.197 431.89 194.13 439.601C186.073 435.682 179.397 414.382 177.066 404.222C173.485 408.359 180.796 427.717 184.898 436.879C174.604 432.525 165.317 416.741 161.96 409.393C160.617 415.707 162.519 424.542 163.638 428.171C148.812 414.564 147.133 399.051 144.896 399.051C143.105 399.051 143.031 412.84 143.217 419.734C136.503 412.767 132.96 395.786 132.027 388.166C127.104 392.52 123.635 400.684 122.516 404.222C116.921 395.296 121.304 375.103 124.195 366.122C118.152 368.952 111.793 378.368 109.368 382.723C109.592 369.877 115.429 357.232 118.32 352.515C112.949 353.385 103.214 366.303 99.018 372.653C99.018 357.195 110.394 342.627 116.082 337.275C102.431 344.024 92.8637 356.96 89.7866 362.584C93.9586 346.165 103.782 331.191 110.201 323.195C106.904 325.704 101.895 327.843 99.018 328.838C105.284 317.081 109.835 303.256 111.327 297.814C97.0039 313.925 88.3879 329.745 85.8702 335.642C91.465 307.992 102.002 288.198 106.571 281.757C100.976 285.023 88.9474 300.898 83.6323 308.427L99.018 277.675C90.2901 278.546 73.9346 296.906 66.8478 305.978C75.5757 288.561 88.9474 274.591 94.5422 269.783C89.3949 268.694 75.6131 277.312 69.3656 281.757C70.7083 275.226 84.4715 266.88 91.1853 263.523C86.2619 260.475 77.0118 262.253 73.0021 263.523C78.0375 256.175 101.256 253.726 104.893 250.46Z" fill="black"/>
<path d="M315.746 254.059C308.524 248.621 315.066 242.351 319.24 239.896C293.471 249.173 264.591 243.129 253.372 238.948C269.304 255.394 259.369 268.339 252.41 272.756C253.605 272.756 256.555 273.055 258.793 274.25C261.031 275.445 267.605 273.752 270.612 272.756C283.424 282.727 286.433 310.715 286.336 323.463V340.46L306.136 351.224C305.36 348.014 303.807 341.026 303.807 338.76C309.398 341.253 315.26 351.885 317.493 356.89C318.89 341.253 301.963 312.037 293.324 299.384C299.381 303.463 308.466 316.381 312.251 322.33C311.087 307.826 301.477 289.658 296.818 282.387C307.301 288.053 321.181 322.33 326.811 338.76C330.538 329.015 317.493 297.118 310.504 282.387C319.123 291.452 327.878 309.771 331.178 317.797C332.576 304.427 321.472 283.898 315.746 275.305C329.49 288.45 341.661 312.132 346.029 322.33C344.398 296.948 332.537 278.705 326.811 272.756C344.864 281.538 349.814 290.603 352.144 290.603C350.047 280.631 337.293 270.584 331.178 266.807C337.585 265.957 347.583 268.629 348.067 269.073C330.596 252.926 324.772 260.858 315.746 254.059Z" fill="black"/>
</svg>
